<?xml version="1.0" encoding="UTF-8" standalone="no"?>
<!-- Created with Inkscape (http://www.inkscape.org/) -->

<svg
   width="210mm"
   height="50mm"
   viewBox="0 0 210 50"
   version="1.1"
   id="svg5"
   xmlns="http://www.w3.org/2000/svg"
   xmlns:svg="http://www.w3.org/2000/svg">
  <defs
     id="defs2">
    <rect
       x="21.693916"
       y="27.396053"
       width="1166.7734"
       height="420.75143"
       id="rect236" />
  </defs>
  <g
     id="layer1">
    <g
       aria-label="panamagenda"
       transform="matrix(0.289131,0,0,0.289131,5.9904055,-1.9227662)"
       id="text234"
       style="font-size:96px;font-family:Pacifico;-inkscape-font-specification:Pacifico;white-space:pre;shape-inside:url(#rect236);fill:#383838;stroke-width:0.377953;stroke-dasharray:2.26772, 2.26772">
      <rect
         style="fill:#242424;fill-opacity:1;stroke-width:0.1;stroke-dasharray:0.600001, 0.600001"
         id="rect475"
         width="124.71837"
         height="0"
         x="0.19010964"
         y="-2.0522091"
         transform="matrix(3.4586399,0,0,3.4586399,-20.718655,6.6501558)" />
      <path
         d="m 35.896484,92.441541 q 0.04687,0.421875 0.04687,0.84375 v 1.78125 q 0.515625,4.6875 3.984375,8.156249 4.078125,4.07813 9.84375,4.07813 5.765625,0 9.796875,-4.07813 4.078125,-4.078124 4.078125,-9.843749 0,-5.765625 -4.078125,-9.796875 -4.03125,-4.078125 -9.796875,-4.078125 -5.765625,0 -9.84375,4.03125 -3.75,3.75 -4.03125,8.90625 z m -9.515625,0.75 q 0.09375,-9.5625 6.84375,-16.3125 6.84375,-6.84375 16.546875,-6.84375 9.703125,0 16.546875,6.84375 6.84375,6.84375 6.84375,16.546875 0,9.703124 -6.84375,16.546874 -6.84375,6.84375 -16.546875,6.84375 -7.828125,0 -13.828125,-4.5 v 18.46875 q 0,1.96875 -1.40625,3.375 -1.40625,1.40625 -3.375,1.40625 -1.96875,0 -3.375,-1.40625 -1.40625,-1.40625 -1.40625,-3.375 z"
         style="font-family:'Neon 80s';-inkscape-font-specification:'Neon 80s';fill:#fde70e;fill-opacity:1"
         id="path400" />
      <path
         d="m 115.95898,83.582166 q -4.07812,-4.078125 -9.84375,-4.078125 -5.76562,0 -9.843746,4.078125 -4.03125,4.03125 -4.03125,9.796875 0,5.765625 4.03125,9.843749 4.078126,4.07813 9.843746,4.07813 5.76563,0 9.84375,-4.07813 3.46875,-3.468749 3.98438,-8.156249 v -1.78125 q 0,-0.421875 0.0469,-0.84375 -0.28125,-5.15625 -4.03125,-8.859375 z m 13.54688,28.640624 q 0,2.71875 -1.40625,3.65625 -1.40625,0.9375 -3.375,0.9375 -1.96875,0 -3.375,-0.9375 -1.40625,-0.9375 -1.40625,-3.5625 -6,4.5 -13.82813,4.5 -9.703121,0 -16.546871,-6.84375 -6.84375,-6.84375 -6.84375,-16.546874 0,-9.703125 6.84375,-16.546875 6.84375,-6.84375 16.546871,-6.84375 9.70313,0 16.54688,6.84375 6.75,6.75 6.84375,16.3125 z"
         style="font-family:'Neon 80s';-inkscape-font-specification:'Neon 80s';fill:#7aec00;fill-opacity:1"
         id="path402" />
      <path
         d="m 162.92773,69.941541 q 9.89063,0.5625 16.26563,6.9375 6.75,6.75 6.84375,16.3125 v 18.093749 q 0,2.71875 -1.40625,4.125 -1.40625,1.40625 -3.375,1.40625 -1.96875,0 -3.375,-1.40625 -1.40625,-1.40625 -1.40625,-4.03125 V 93.285291 q 0,-0.421875 0.0469,-0.84375 -0.28125,-5.15625 -4.03125,-8.859375 -4.07812,-4.078125 -9.84375,-4.078125 h -0.1875 q -5.76562,0 -9.84375,4.078125 -3.75,3.703125 -4.03125,8.859375 0.0469,0.421875 0.0469,0.84375 v 18.093749 q 0,2.625 -1.40625,4.03125 -1.40625,1.40625 -3.375,1.40625 -1.96875,0 -3.375,-1.40625 -1.40625,-1.40625 -1.40625,-4.125 V 93.191541 q 0.0937,-9.5625 6.84375,-16.3125 6.375,-6.375 16.26562,-6.9375 z"
         style="font-family:'Neon 80s';-inkscape-font-specification:'Neon 80s';fill:#00c426;fill-opacity:1"
         id="path404" />
      <path
         d="m 228.64648,83.582166 q -4.07812,-4.078125 -9.84375,-4.078125 -5.76562,0 -9.84375,4.078125 -4.03125,4.03125 -4.03125,9.796875 0,5.765625 4.03125,9.843749 4.07813,4.07813 9.84375,4.07813 5.76563,0 9.84375,-4.07813 3.46875,-3.468749 3.98438,-8.156249 v -1.78125 q 0,-0.421875 0.0469,-0.84375 -0.28125,-5.15625 -4.03125,-8.859375 z m 13.54688,28.640624 q 0,2.71875 -1.40625,3.65625 -1.40625,0.9375 -3.375,0.9375 -1.96875,0 -3.375,-0.9375 -1.40625,-0.9375 -1.40625,-3.5625 -6,4.5 -13.82813,4.5 -9.70312,0 -16.54687,-6.84375 -6.84375,-6.84375 -6.84375,-16.546874 0,-9.703125 6.84375,-16.546875 6.84375,-6.84375 16.54687,-6.84375 9.70313,0 16.54688,6.84375 6.75,6.75 6.84375,16.3125 z"
         style="font-family:'Neon 80s';-inkscape-font-specification:'Neon 80s';fill:#00b47a;fill-opacity:1"
         id="path406" />
      <path
         d="m 293.94336,116.81654 q -1.96875,0 -3.375,-1.40625 -1.40625,-1.40625 -1.40625,-4.03125 V 93.285291 q 0,-0.421875 0.0469,-0.84375 -0.28125,-5.15625 -4.03125,-8.859375 -4.07812,-4.078125 -9.84375,-4.078125 h -0.1875 q -5.76562,0 -9.84375,4.078125 -3.75,3.703125 -4.03125,8.859375 0.0469,0.421875 0.0469,0.84375 v 18.093749 q 0,2.625 -1.40625,4.03125 -1.40625,1.40625 -3.375,1.40625 -1.96875,0 -3.375,-1.40625 -1.40625,-1.40625 -1.40625,-4.125 V 93.191541 q 0.0937,-9.5625 6.84375,-16.3125 6.375,-6.375 16.26562,-6.9375 h 0.75 q 9.89063,0.5625 16.26563,6.9375 1.17187,1.171875 2.10937,2.390625 0.9375,-1.21875 2.10938,-2.390625 6.375,-6.375 16.26562,-6.9375 h 0.75 q 9.89063,0.5625 16.26563,6.9375 6.75,6.75 6.84375,16.3125 v 18.093749 q 0,2.71875 -1.40625,4.125 -1.40625,1.40625 -3.375,1.40625 -1.96875,0 -3.375,-1.40625 -1.40625,-1.40625 -1.40625,-4.03125 V 93.285291 q 0,-0.421875 0.0469,-0.84375 -0.28125,-5.15625 -4.03125,-8.859375 -4.07812,-4.078125 -9.84375,-4.078125 h -0.1875 q -5.76562,0 -9.84375,4.078125 -3.75,3.703125 -4.03125,8.859375 0.0469,0.421875 0.0469,0.84375 v 18.093749 q 0,2.625 -1.40625,4.03125 -1.40625,1.40625 -3.375,1.40625 z"
         style="font-family:'Neon 80s';-inkscape-font-specification:'Neon 80s';fill:#157fc8;fill-opacity:1"
         id="path408" />
      <path
         d="m 378.88086,83.582166 q -4.07813,-4.078125 -9.84375,-4.078125 -5.76563,0 -9.84375,4.078125 -4.03125,4.03125 -4.03125,9.796875 0,5.765625 4.03125,9.843749 4.07812,4.07813 9.84375,4.07813 5.76562,0 9.84375,-4.07813 3.46875,-3.468749 3.98437,-8.156249 v -1.78125 q 0,-0.421875 0.0469,-0.84375 -0.28125,-5.15625 -4.03125,-8.859375 z m 13.54687,28.640624 q 0,2.71875 -1.40625,3.65625 -1.40625,0.9375 -3.375,0.9375 -1.96875,0 -3.375,-0.9375 -1.40625,-0.9375 -1.40625,-3.5625 -6,4.5 -13.82812,4.5 -9.70313,0 -16.54688,-6.84375 -6.84375,-6.84375 -6.84375,-16.546874 0,-9.703125 6.84375,-16.546875 6.84375,-6.84375 16.54688,-6.84375 9.70312,0 16.54687,6.84375 6.75,6.75 6.84375,16.3125 z"
         style="font-family:'Neon 80s';-inkscape-font-specification:'Neon 80s';fill:#1830f6;fill-opacity:1"
         id="path410" />
      <path
         d="m 425.38086,79.504041 q -5.76563,0 -9.84375,4.078125 -4.07813,4.03125 -4.07813,9.796875 0,5.765625 4.07813,9.843749 4.07812,4.07813 9.84375,4.07813 5.76562,0 9.79687,-4.07813 4.07813,-4.078124 4.07813,-9.843749 0,-5.765625 -4.07813,-9.796875 -4.03125,-4.078125 -9.79687,-4.078125 z m 13.875,32.812499 q -6,4.5 -13.875,4.5 -9.70313,0 -16.54688,-6.84375 -6.84375,-6.84375 -6.84375,-16.546874 0,-9.703125 6.84375,-16.546875 6.84375,-6.84375 16.54688,-6.84375 9.70312,0 16.54687,6.84375 6.84375,6.84375 6.84375,16.5 h 0.0469 v 18.656249 q 0,0.375 -0.0469,0.75 -0.23437,9.32813 -6.84375,15.9375 -6.84375,6.84375 -16.54687,6.84375 h -0.1875 q -1.96875,0 -3.375,-1.40625 -1.40625,-1.40625 -1.40625,-3.375 0,-1.96875 1.40625,-3.375 1.40625,-1.40625 3.375,-1.40625 0.32812,0 0.65625,0.0469 5.4375,-0.1875 9.375,-4.07813 3.98437,-4.03125 4.03125,-9.65625 z"
         style="font-family:'Neon 80s';-inkscape-font-specification:'Neon 80s';fill:#7c00f8;fill-opacity:1"
         id="path412" />
      <path
         d="m 487.39648,80.675916 q -2.57812,-1.171875 -5.67187,-1.171875 -5.76563,0 -9.84375,4.078125 -4.07813,4.03125 -4.07813,9.796875 0,5.765625 4.07813,9.843749 4.07812,4.07813 9.84375,4.07813 5.71875,0 9.79687,-4.03125 0.0469,-0.0469 0.0937,-0.0937 1.35938,-1.35938 3.32813,-1.35938 1.96875,0 3.375,1.40625 1.40625,1.35938 1.40625,3.32813 0,1.96875 -1.40625,3.375 -0.0469,0.0469 -0.0937,0.0937 -6.79688,6.79687 -16.5,6.79687 -9.70313,0 -16.54688,-6.84375 -6.84375,-6.84375 -6.84375,-16.546874 0,-9.703125 6.84375,-16.546875 6.84375,-6.84375 16.54688,-6.84375 9.70312,0 16.5,6.796875 l -0.0469,0.04687 q 0,0.04687 0.0469,0.04687 1.35937,1.359375 1.35937,3.328125 0,1.921875 -1.35937,3.28125 l -13.40625,13.3125 q -1.40625,1.359375 -3.375,1.359375 -2.01563,0 -3.42188,-1.359375 -1.35937,-1.40625 -1.35937,-3.421875 0,-1.96875 1.35937,-3.375 z"
         style="font-family:'Neon 80s';-inkscape-font-specification:'Neon 80s';fill:#f70386;fill-opacity:1"
         id="path414" />
      <path
         d="m 533.61523,69.941541 q 9.89063,0.5625 16.26563,6.9375 6.75,6.75 6.84375,16.3125 v 18.093749 q 0,2.71875 -1.40625,4.125 -1.40625,1.40625 -3.375,1.40625 -1.96875,0 -3.375,-1.40625 -1.40625,-1.40625 -1.40625,-4.03125 V 93.285291 q 0,-0.421875 0.0469,-0.84375 -0.28125,-5.15625 -4.03125,-8.859375 -4.07812,-4.078125 -9.84375,-4.078125 h -0.1875 q -5.76562,0 -9.84375,4.078125 -3.75,3.703125 -4.03125,8.859375 0.0469,0.421875 0.0469,0.84375 v 18.093749 q 0,2.625 -1.40625,4.03125 -1.40625,1.40625 -3.375,1.40625 -1.96875,0 -3.375,-1.40625 -1.40625,-1.40625 -1.40625,-4.125 V 93.191541 q 0.0937,-9.5625 6.84375,-16.3125 6.375,-6.375 16.26562,-6.9375 z"
         style="font-family:'Neon 80s';-inkscape-font-specification:'Neon 80s';fill:#d70b1c;fill-opacity:1"
         id="path416" />
      <path
         d="m 603.36523,94.410291 q -0.0469,-0.421875 -0.0469,-0.84375 v -1.78125 q -0.51563,-4.6875 -3.98438,-8.15625 -4.07812,-4.078125 -9.84375,-4.078125 -5.76562,0 -9.84375,4.078125 -4.03125,4.078125 -4.03125,9.84375 0,5.765625 4.03125,9.843749 4.07813,4.03125 9.84375,4.03125 5.76563,0 9.84375,-4.07812 3.75,-3.703129 4.03125,-8.859379 z m 9.51563,-0.75 q -0.0937,9.562499 -6.84375,16.312499 -6.84375,6.84375 -16.54688,6.84375 -9.70312,0 -16.54687,-6.84375 -6.84375,-6.84375 -6.84375,-16.546874 0,-9.703125 6.84375,-16.546875 6.84375,-6.84375 16.54687,-6.84375 7.82813,0 13.82813,4.5 v -13.78125 q 0,-1.96875 1.40625,-3.375 1.40625,-1.40625 3.375,-1.40625 1.96875,0 3.375,1.40625 1.40625,1.40625 1.40625,3.375 z"
         style="font-family:'Neon 80s';-inkscape-font-specification:'Neon 80s';fill:#fd6800;fill-opacity:1"
         id="path418" />
      <path
         d="m 655.67773,83.582166 q -4.07812,-4.078125 -9.84375,-4.078125 -5.76562,0 -9.84375,4.078125 -4.03125,4.03125 -4.03125,9.796875 0,5.765625 4.03125,9.843749 4.07813,4.07813 9.84375,4.07813 5.76563,0 9.84375,-4.07813 3.46875,-3.468749 3.98438,-8.156249 v -1.78125 q 0,-0.421875 0.0469,-0.84375 -0.28125,-5.15625 -4.03125,-8.859375 z m 13.54688,28.640624 q 0,2.71875 -1.40625,3.65625 -1.40625,0.9375 -3.375,0.9375 -1.96875,0 -3.375,-0.9375 -1.40625,-0.9375 -1.40625,-3.5625 -6,4.5 -13.82813,4.5 -9.70312,0 -16.54687,-6.84375 -6.84375,-6.84375 -6.84375,-16.546874 0,-9.703125 6.84375,-16.546875 6.84375,-6.84375 16.54687,-6.84375 9.70313,0 16.54688,6.84375 6.75,6.75 6.84375,16.3125 z"
         style="font-family:'Neon 80s';-inkscape-font-specification:'Neon 80s';fill:#f48d00;fill-opacity:1"
         id="path420" />
    </g>
  </g>
</svg>
