<?xml version="1.0" encoding="UTF-8" standalone="no"?>
<!-- Created with Inkscape (http://www.inkscape.org/) -->

<svg
   width="210mm"
   height="210mm"
   viewBox="0 0 210 210"
   version="1.1"
   id="svg5"
   xmlns="http://www.w3.org/2000/svg"
   xmlns:svg="http://www.w3.org/2000/svg">
  <defs
     id="defs2" />
  <g
     id="layer1">
    <ellipse
       style="fill:#ffa600;stroke-width:0.103214;stroke-dasharray:0.619284, 0.619284;fill-opacity:1"
       id="path234"
       cx="106.17744"
       cy="87.800186"
       rx="81.687431"
       ry="84.097923" />
    <path
       style="fill:#ffa600;stroke-width:0.1;stroke-dasharray:0.600001, 0.600001;fill-opacity:1"
       d="m 72.911921,152.23883 c 1.740285,22.61968 29.552299,56.16764 29.552299,56.16764 0,0 30.07115,-36.28489 32.0286,-55.73868 2.05511,-20.42433 -63.155562,-20.89594 -61.580899,-0.42896 z"
       id="path398" />
    <ellipse
       style="fill:#fff;fill-opacity:1;stroke-width:0.106399;stroke-dasharray:0.638398, 0.638398"
       id="path496"
       cx="105.98125"
       cy="87.682022"
       rx="60.549919"
       ry="64.530075" />
    <g
       id="g7"
       transform="translate(-7.9773688,-5.6828292)">
      <circle
         style="fill:none;fill-opacity:1;stroke:#ffa600;stroke-width:6.07457;stroke-linecap:round;stroke-linejoin:round;stroke-dasharray:none;stroke-opacity:1"
         id="path1"
         cx="113.73103"
         cy="93.333168"
         r="42.867756" />
      <path
         style="fill:none;fill-opacity:1;stroke:#ffa600;stroke-width:5;stroke-linecap:round;stroke-linejoin:round;stroke-dasharray:none;stroke-opacity:1"
         d="m 86.633951,61.69762 c 0,0 13.795919,15.256583 14.005149,33.421651 0.20923,18.165069 -12.265267,30.928599 -12.265267,30.928599"
         id="path7" />
      <path
         style="fill:none;fill-opacity:1;stroke:#ffa600;stroke-width:3;stroke-linecap:round;stroke-linejoin:round;stroke-dasharray:none;stroke-opacity:1"
         d="m 90.072597,74.392757 c 0,0 1.297611,-1.803373 3.469786,-2.8835 2.172175,-1.080127 4.754991,-1.008605 4.754991,-1.008605"
         id="path8" />
      <path
         style="fill:none;fill-opacity:1;stroke:#ffa600;stroke-width:3;stroke-linecap:round;stroke-linejoin:round;stroke-dasharray:none;stroke-opacity:1"
         d="m 93.138509,81.264359 c 0,0 1.583142,-1.558721 3.906357,-2.257069 2.323218,-0.698349 4.856974,-0.192294 4.856974,-0.192294"
         id="path9" />
      <path
         style="fill:none;fill-opacity:1;stroke:#ffa600;stroke-width:3;stroke-linecap:round;stroke-linejoin:round;stroke-dasharray:none;stroke-opacity:1"
         d="m 95.200903,88.873772 c 0,0 1.678041,-1.456066 4.040581,-2.006917 2.362536,-0.550852 4.859456,0.113558 4.859456,0.113558"
         id="path10" />
      <path
         style="fill:none;fill-opacity:1;stroke:#ffa600;stroke-width:3;stroke-linecap:round;stroke-linejoin:round;stroke-dasharray:none;stroke-opacity:1"
         d="m 96.164323,97.438088 c 0,0 1.889971,-1.167881 4.310287,-1.332425 2.42033,-0.164544 4.77825,0.891987 4.77825,0.891987"
         id="path11" />
      <path
         style="fill:none;fill-opacity:1;stroke:#ffa600;stroke-width:3;stroke-linecap:round;stroke-linejoin:round;stroke-dasharray:none;stroke-opacity:1"
         d="m 94.377506,106.55373 c 0,0 2.011107,-0.94413 4.434358,-0.83086 2.423266,0.11325 4.644926,1.43245 4.644926,1.43245"
         id="path12" />
      <path
         style="fill:none;fill-opacity:1;stroke:#ffa600;stroke-width:3;stroke-linecap:round;stroke-linejoin:round;stroke-dasharray:none;stroke-opacity:1"
         d="m 91.201917,113.86288 c 0,0 2.183618,-0.40957 4.501011,0.30783 2.317416,0.71739 4.137206,2.55162 4.137206,2.55162"
         id="path13" />
      <path
         style="fill:none;fill-opacity:1;stroke:#ffa600;stroke-width:5;stroke-linecap:round;stroke-linejoin:round;stroke-dasharray:none;stroke-opacity:1"
         d="m 141.11587,61.051516 c 0,0 -13.79592,15.256583 -14.00515,33.421651 -0.20923,18.165073 12.26527,30.928603 12.26527,30.928603"
         id="path14" />
      <path
         style="fill:none;fill-opacity:1;stroke:#ffa600;stroke-width:3;stroke-linecap:round;stroke-linejoin:round;stroke-dasharray:none;stroke-opacity:1"
         d="m 137.67722,73.746653 c 0,0 -1.29761,-1.803373 -3.46978,-2.8835 -2.17217,-1.080127 -4.75499,-1.008605 -4.75499,-1.008605"
         id="path15" />
      <path
         style="fill:none;fill-opacity:1;stroke:#ffa600;stroke-width:3;stroke-linecap:round;stroke-linejoin:round;stroke-dasharray:none;stroke-opacity:1"
         d="m 134.61132,80.618255 c 0,0 -1.58315,-1.558721 -3.90636,-2.257069 -2.32322,-0.698349 -4.85698,-0.192294 -4.85698,-0.192294"
         id="path16" />
      <path
         style="fill:none;fill-opacity:1;stroke:#ffa600;stroke-width:3;stroke-linecap:round;stroke-linejoin:round;stroke-dasharray:none;stroke-opacity:1"
         d="m 132.54892,88.227668 c 0,0 -1.67804,-1.456066 -4.04058,-2.006917 -2.36254,-0.550852 -4.85946,0.113558 -4.85946,0.113558"
         id="path17" />
      <path
         style="fill:none;fill-opacity:1;stroke:#ffa600;stroke-width:3;stroke-linecap:round;stroke-linejoin:round;stroke-dasharray:none;stroke-opacity:1"
         d="m 131.5855,96.791984 c 0,0 -1.88997,-1.167881 -4.31029,-1.332425 -2.42033,-0.164544 -4.77825,0.891987 -4.77825,0.891987"
         id="path18" />
      <path
         style="fill:none;fill-opacity:1;stroke:#ffa600;stroke-width:3;stroke-linecap:round;stroke-linejoin:round;stroke-dasharray:none;stroke-opacity:1"
         d="m 133.37232,105.90763 c 0,0 -2.01111,-0.94413 -4.43436,-0.83086 -2.42327,0.11325 -4.64493,1.43245 -4.64493,1.43245"
         id="path19" />
      <path
         style="fill:none;fill-opacity:1;stroke:#ffa600;stroke-width:3;stroke-linecap:round;stroke-linejoin:round;stroke-dasharray:none;stroke-opacity:1"
         d="m 136.5479,113.21678 c 0,0 -2.18361,-0.40957 -4.501,0.30783 -2.31742,0.71739 -4.13721,2.55162 -4.13721,2.55162"
         id="path20" />
    </g>
  </g>
</svg>
