<?xml version="1.0" encoding="UTF-8" standalone="no"?>
<!-- Created with Inkscape (http://www.inkscape.org/) -->

<svg
   width="210mm"
   height="210mm"
   viewBox="0 0 210 210"
   version="1.1"
   id="svg5"
   xmlns="http://www.w3.org/2000/svg"
   xmlns:svg="http://www.w3.org/2000/svg">
  <defs
     id="defs2" />
  <g
     id="layer1">
    <ellipse
       style="fill:#003f5c;stroke-width:0.103214;stroke-dasharray:0.619284, 0.619284;fill-opacity:1"
       id="path234"
       cx="106.17744"
       cy="87.800186"
       rx="81.687431"
       ry="84.097923" />
    <path
       style="fill:#003f5c;stroke-width:0.1;stroke-dasharray:0.600001, 0.600001;fill-opacity:1"
       d="m 72.911921,152.23883 c 1.740285,22.61968 29.552299,56.16764 29.552299,56.16764 0,0 30.07115,-36.28489 32.0286,-55.73868 2.05511,-20.42433 -63.155562,-20.89594 -61.580899,-0.42896 z"
       id="path398" />
    <ellipse
       style="fill:#fff;fill-opacity:1;stroke-width:0.106399;stroke-dasharray:0.638398, 0.638398"
       id="path496"
       cx="105.98125"
       cy="87.682022"
       rx="60.549919"
       ry="64.530075" />
    <path
       style="fill:none;fill-opacity:1;stroke:#003f5c;stroke-width:3.12112;stroke-linecap:round;stroke-linejoin:round;stroke-dasharray:none;stroke-opacity:1"
       d="m 106.30956,63.870748 0.44771,56.783222 c 0,0 6.00828,-6.24037 16.29095,-8.91913 10.28267,-2.67876 19.94676,-0.75597 19.94676,-0.75597 l 0.19157,-56.662985 c 0,0 -9.49869,-2.585447 -20.51783,1.167294 -11.01914,3.752741 -16.35916,8.387569 -16.35916,8.387569 z"
       id="path20" />
    <path
       style="fill:none;fill-opacity:1;stroke:#003f5c;stroke-width:3.12112;stroke-linecap:round;stroke-linejoin:round;stroke-dasharray:none;stroke-opacity:1"
       d="m 106.98081,120.63995 c 0,0 7.88048,-3.48579 20.39308,-3.48579 12.5126,0 21.30247,3.66376 21.30247,3.66376 l -0.10264,-58.855356"
       id="path21" />
    <path
       style="fill:none;fill-opacity:1;stroke:#003f5c;stroke-width:3.12112;stroke-linecap:round;stroke-linejoin:round;stroke-dasharray:none;stroke-opacity:1"
       d="m 106.5069,63.951941 -0.44771,56.783219 c 0,0 -6.00828,-6.24037 -16.290949,-8.91913 -10.28267,-2.67876 -19.94676,-0.75597 -19.94676,-0.75597 l -0.19157,-56.662982 c 0,0 9.49869,-2.585447 20.51783,1.167294 11.019139,3.752741 16.359159,8.387569 16.359159,8.387569 z"
       id="path23" />
    <path
       style="fill:none;fill-opacity:1;stroke:#003f5c;stroke-width:3.12112;stroke-linecap:round;stroke-linejoin:round;stroke-dasharray:none;stroke-opacity:1"
       d="m 105.83565,120.72114 c 0,0 -7.880479,-3.48579 -20.393079,-3.48579 -12.5126,0 -21.30247,3.66376 -21.30247,3.66376 l 0.10264,-58.855353"
       id="path24" />
  </g>
</svg>
